STARTFONT 2.1
COMMENT $XConsortium: luBIS08.bdf,v 1.7 94/04/02 16:10:38 gildea Exp $
COMMENT  (c) Copyright Bigelow & Holmes 1986, 1985. Lucida is a registered
COMMENT  trademark of Bigelow & Holmes. See LEGAL NOTICE file for terms 
COMMENT  of the license. 
COMMENT  
COMMENT  Translation to ISO8859-2 by Cub Soft;  Petr.Kolar@vslib.cz
COMMENT  
FONT -B&H-Lucida-Bold-I-Normal-Sans-8-80-75-75-P-49-ISO8859-2
SIZE 8 72 72
FONTBOUNDINGBOX 17 10 -6 -2
STARTPROPERTIES 20
COMMENT Begin LogicalFontDescription
FONTNAME_REGISTRY ""
FOUNDRY "B&H"
FAMILY_NAME "Lucida"
WEIGHT_NAME "Bold"
SLANT "I"
SETWIDTH_NAME "Normal"
ADD_STYLE_NAME "Sans"
PIXEL_SIZE 8
POINT_SIZE 80
RESOLUTION_X 75
RESOLUTION_Y 75
SPACING "P"
AVERAGE_WIDTH 49
CHARSET_REGISTRY "ISO8859"
CHARSET_ENCODING "2"
COMMENT END LogicalFontDescription
FONT_ASCENT 7
FONT_DESCENT 2
DEFAULT_CHAR 0
COPYRIGHT "Copyright Bigelow & Holmes 1986, 1985., Copyright 1996 Cub Soft"
FACE_NAME "Lucida Sans Bold Italic"
ENDPROPERTIES
CHARS 191
STARTCHAR space
ENCODING 32
SWIDTH 343 0
DWIDTH 3 0
BBX 1 1 0 0
BITMAP
00
ENDCHAR
STARTCHAR exclam
ENCODING 33
SWIDTH 343 0
DWIDTH 3 0
BBX 3 6 0 0
BITMAP
60
60
40
40
00
c0
ENDCHAR
STARTCHAR quotedbl
ENCODING 34
SWIDTH 530 0
DWIDTH 4 0
BBX 4 2 1 4
BITMAP
90
90
ENDCHAR
STARTCHAR numbersign
ENCODING 35
SWIDTH 687 0
DWIDTH 5 0
BBX 5 6 1 0
BITMAP
38
28
f8
50
f8
e0
ENDCHAR
STARTCHAR dollar
ENCODING 36
SWIDTH 687 0
DWIDTH 5 0
BBX 5 9 1 -2
BITMAP
10
38
60
60
30
30
f0
40
40
ENDCHAR
STARTCHAR percent
ENCODING 37
SWIDTH 908 0
DWIDTH 7 0
BBX 7 6 1 0
BITMAP
46
a8
b0
e0
46
8e
ENDCHAR
STARTCHAR ampersand
ENCODING 38
SWIDTH 816 0
DWIDTH 7 0
BBX 6 6 1 0
BITMAP
38
28
74
94
98
78
ENDCHAR
STARTCHAR apostrophe
ENCODING 39
SWIDTH 265 0
DWIDTH 2 0
BBX 2 3 1 3
BITMAP
c0
c0
80
ENDCHAR
STARTCHAR parenleft
ENCODING 40
SWIDTH 386 0
DWIDTH 3 0
BBX 3 8 1 -2
BITMAP
20
40
c0
80
80
80
80
80
ENDCHAR
STARTCHAR parenright
ENCODING 41
SWIDTH 386 0
DWIDTH 3 0
BBX 3 8 0 -2
BITMAP
40
20
20
20
60
40
40
80
ENDCHAR
STARTCHAR asterisk
ENCODING 42
SWIDTH 464 0
DWIDTH 4 0
BBX 3 3 1 3
BITMAP
40
a0
e0
ENDCHAR
STARTCHAR plus
ENCODING 43
SWIDTH 687 0
DWIDTH 5 0
BBX 5 5 1 0
BITMAP
10
10
f8
40
40
ENDCHAR
STARTCHAR comma
ENCODING 44
SWIDTH 343 0
DWIDTH 3 0
BBX 2 3 0 -2
BITMAP
c0
40
80
ENDCHAR
STARTCHAR minus
ENCODING 45
SWIDTH 687 0
DWIDTH 5 0
BBX 5 1 1 2
BITMAP
f8
ENDCHAR
STARTCHAR period
ENCODING 46
SWIDTH 343 0
DWIDTH 3 0
BBX 2 1 1 0
BITMAP
c0
ENDCHAR
STARTCHAR slash
ENCODING 47
SWIDTH 596 0
DWIDTH 5 0
BBX 6 8 0 -2
BITMAP
04
08
10
10
20
20
40
80
ENDCHAR
STARTCHAR zero
ENCODING 48
SWIDTH 687 0
DWIDTH 5 0
BBX 4 6 1 0
BITMAP
70
50
90
90
b0
60
ENDCHAR
STARTCHAR one
ENCODING 49
SWIDTH 687 0
DWIDTH 5 0
BBX 3 6 2 0
BITMAP
e0
60
40
40
c0
c0
ENDCHAR
STARTCHAR two
ENCODING 50
SWIDTH 687 0
DWIDTH 5 0
BBX 5 6 1 0
BITMAP
78
08
18
20
40
f0
ENDCHAR
STARTCHAR three
ENCODING 51
SWIDTH 687 0
DWIDTH 5 0
BBX 5 6 1 0
BITMAP
78
08
70
10
18
f0
ENDCHAR
STARTCHAR four
ENCODING 52
SWIDTH 687 0
DWIDTH 5 0
BBX 5 6 0 0
BITMAP
18
38
50
f8
10
30
ENDCHAR
STARTCHAR five
ENCODING 53
SWIDTH 687 0
DWIDTH 5 0
BBX 5 6 1 0
BITMAP
78
40
60
10
10
e0
ENDCHAR
STARTCHAR six
ENCODING 54
SWIDTH 687 0
DWIDTH 5 0
BBX 5 6 1 0
BITMAP
38
40
f0
88
90
70
ENDCHAR
STARTCHAR seven
ENCODING 55
SWIDTH 687 0
DWIDTH 5 0
BBX 5 6 1 0
BITMAP
f8
10
20
60
40
80
ENDCHAR
STARTCHAR eight
ENCODING 56
SWIDTH 687 0
DWIDTH 5 0
BBX 5 6 1 0
BITMAP
38
48
70
d8
88
f0
ENDCHAR
STARTCHAR nine
ENCODING 57
SWIDTH 687 0
DWIDTH 5 0
BBX 5 6 1 0
BITMAP
70
48
88
78
10
e0
ENDCHAR
STARTCHAR colon
ENCODING 58
SWIDTH 343 0
DWIDTH 3 0
BBX 2 4 1 0
BITMAP
c0
00
00
c0
ENDCHAR
STARTCHAR semicolon
ENCODING 59
SWIDTH 343 0
DWIDTH 3 0
BBX 3 6 0 -2
BITMAP
60
00
00
c0
40
c0
ENDCHAR
STARTCHAR less
ENCODING 60
SWIDTH 687 0
DWIDTH 5 0
BBX 5 5 0 0
BITMAP
08
30
c0
60
10
ENDCHAR
STARTCHAR equal
ENCODING 61
SWIDTH 687 0
DWIDTH 5 0
BBX 5 3 1 1
BITMAP
f8
00
f8
ENDCHAR
STARTCHAR greater
ENCODING 62
SWIDTH 687 0
DWIDTH 5 0
BBX 6 5 1 0
BITMAP
20
38
04
78
80
ENDCHAR
STARTCHAR question
ENCODING 63
SWIDTH 539 0
DWIDTH 4 0
BBX 4 6 1 0
BITMAP
f0
10
20
c0
00
c0
ENDCHAR
STARTCHAR at
ENCODING 64
SWIDTH 833 0
DWIDTH 7 0
BBX 5 6 1 0
BITMAP
38
c8
f8
b8
f8
70
ENDCHAR
STARTCHAR A
ENCODING 65
SWIDTH 771 0
DWIDTH 6 0
BBX 6 6 0 0
BITMAP
18
28
28
3c
4c
8c
ENDCHAR
STARTCHAR B
ENCODING 66
SWIDTH 660 0
DWIDTH 5 0
BBX 5 6 1 0
BITMAP
78
48
70
d0
c8
f0
ENDCHAR
STARTCHAR C
ENCODING 67
SWIDTH 737 0
DWIDTH 6 0
BBX 6 6 1 0
BITMAP
3c
40
80
80
c0
78
ENDCHAR
STARTCHAR D
ENCODING 68
SWIDTH 822 0
DWIDTH 7 0
BBX 6 6 1 0
BITMAP
7c
64
44
c4
c8
f0
ENDCHAR
STARTCHAR E
ENCODING 69
SWIDTH 642 0
DWIDTH 5 0
BBX 5 6 1 0
BITMAP
78
40
70
c0
c0
f0
ENDCHAR
STARTCHAR F
ENCODING 70
SWIDTH 614 0
DWIDTH 5 0
BBX 5 6 1 0
BITMAP
78
40
40
f0
c0
c0
ENDCHAR
STARTCHAR G
ENCODING 71
SWIDTH 755 0
DWIDTH 6 0
BBX 6 6 1 0
BITMAP
3c
40
80
88
98
78
ENDCHAR
STARTCHAR H
ENCODING 72
SWIDTH 813 0
DWIDTH 7 0
BBX 6 6 1 0
BITMAP
6c
4c
7c
c8
c8
d8
ENDCHAR
STARTCHAR I
ENCODING 73
SWIDTH 361 0
DWIDTH 3 0
BBX 3 6 1 0
BITMAP
60
60
40
40
c0
c0
ENDCHAR
STARTCHAR J
ENCODING 74
SWIDTH 502 0
DWIDTH 4 0
BBX 5 8 0 -2
BITMAP
18
18
18
10
30
30
30
e0
ENDCHAR
STARTCHAR K
ENCODING 75
SWIDTH 753 0
DWIDTH 6 0
BBX 5 6 1 0
BITMAP
58
50
60
e0
d0
98
ENDCHAR
STARTCHAR L
ENCODING 76
SWIDTH 623 0
DWIDTH 5 0
BBX 4 6 1 0
BITMAP
40
40
40
c0
c0
f0
ENDCHAR
STARTCHAR M
ENCODING 77
SWIDTH 940 0
DWIDTH 8 0
BBX 7 6 1 0
BITMAP
66
66
6e
f4
b4
a4
ENDCHAR
STARTCHAR N
ENCODING 78
SWIDTH 789 0
DWIDTH 6 0
BBX 6 6 1 0
BITMAP
44
64
6c
d8
98
88
ENDCHAR
STARTCHAR O
ENCODING 79
SWIDTH 855 0
DWIDTH 7 0
BBX 5 6 1 0
BITMAP
38
48
88
88
98
70
ENDCHAR
STARTCHAR P
ENCODING 80
SWIDTH 645 0
DWIDTH 5 0
BBX 5 6 1 0
BITMAP
78
48
48
f0
c0
c0
ENDCHAR
STARTCHAR Q
ENCODING 81
SWIDTH 855 0
DWIDTH 7 0
BBX 6 8 1 -2
BITMAP
38
48
88
88
98
70
18
0c
ENDCHAR
STARTCHAR R
ENCODING 82
SWIDTH 708 0
DWIDTH 6 0
BBX 5 6 1 0
BITMAP
78
48
50
e0
d0
90
ENDCHAR
STARTCHAR S
ENCODING 83
SWIDTH 639 0
DWIDTH 5 0
BBX 5 6 1 0
BITMAP
38
40
60
10
18
f0
ENDCHAR
STARTCHAR T
ENCODING 84
SWIDTH 747 0
DWIDTH 6 0
BBX 6 6 1 0
BITMAP
fc
30
20
20
60
60
ENDCHAR
STARTCHAR U
ENCODING 85
SWIDTH 759 0
DWIDTH 6 0
BBX 6 6 1 0
BITMAP
4c
4c
c8
88
98
70
ENDCHAR
STARTCHAR V
ENCODING 86
SWIDTH 765 0
DWIDTH 6 0
BBX 6 6 1 0
BITMAP
c4
c8
d8
50
60
60
ENDCHAR
STARTCHAR W
ENCODING 87
SWIDTH 991 0
DWIDTH 8 0
BBX 7 6 2 0
BITMAP
96
b4
94
98
d0
90
ENDCHAR
STARTCHAR X
ENCODING 88
SWIDTH 696 0
DWIDTH 6 0
BBX 6 7 0 -1
BITMAP
6c
28
30
30
50
58
80
ENDCHAR
STARTCHAR Y
ENCODING 89
SWIDTH 681 0
DWIDTH 5 0
BBX 5 6 1 0
BITMAP
98
50
60
60
40
40
ENDCHAR
STARTCHAR Z
ENCODING 90
SWIDTH 687 0
DWIDTH 5 0
BBX 6 6 0 0
BITMAP
7c
08
10
20
40
f8
ENDCHAR
STARTCHAR bracketleft
ENCODING 91
SWIDTH 386 0
DWIDTH 3 0
BBX 4 8 0 -2
BITMAP
30
60
60
40
40
40
c0
e0
ENDCHAR
STARTCHAR backslash
ENCODING 92
SWIDTH 566 0
DWIDTH 5 0
BBX 3 8 1 -2
BITMAP
80
80
40
40
40
40
20
20
ENDCHAR
STARTCHAR bracketright
ENCODING 93
SWIDTH 386 0
DWIDTH 3 0
BBX 4 8 0 -2
BITMAP
70
30
20
20
20
60
60
c0
ENDCHAR
STARTCHAR asciicircum
ENCODING 94
SWIDTH 687 0
DWIDTH 5 0
BBX 5 4 0 1
BITMAP
30
30
50
c8
ENDCHAR
STARTCHAR underscore
ENCODING 95
SWIDTH 500 0
DWIDTH 4 0
BBX 4 1 0 -2
BITMAP
f0
ENDCHAR
STARTCHAR grave
ENCODING 96
SWIDTH 663 0
DWIDTH 5 0
BBX 2 1 3 5
BITMAP
c0
ENDCHAR
STARTCHAR a
ENCODING 97
SWIDTH 681 0
DWIDTH 5 0
BBX 5 4 1 0
BITMAP
78
d8
b0
d0
ENDCHAR
STARTCHAR b
ENCODING 98
SWIDTH 681 0
DWIDTH 5 0
BBX 5 6 1 0
BITMAP
60
60
78
e8
f8
f0
ENDCHAR
STARTCHAR c
ENCODING 99
SWIDTH 548 0
DWIDTH 4 0
BBX 4 4 1 0
BITMAP
70
80
80
e0
ENDCHAR
STARTCHAR d
ENCODING 100
SWIDTH 681 0
DWIDTH 5 0
BBX 5 6 1 0
BITMAP
18
18
78
d0
b0
f0
ENDCHAR
STARTCHAR e
ENCODING 101
SWIDTH 612 0
DWIDTH 5 0
BBX 4 4 1 0
BITMAP
70
e0
d0
f0
ENDCHAR
STARTCHAR f
ENCODING 102
SWIDTH 464 0
DWIDTH 4 0
BBX 5 8 0 -2
BITMAP
38
60
f0
60
40
40
c0
c0
ENDCHAR
STARTCHAR g
ENCODING 103
SWIDTH 674 0
DWIDTH 5 0
BBX 5 6 1 -2
BITMAP
38
58
90
f0
90
e0
ENDCHAR
STARTCHAR h
ENCODING 104
SWIDTH 675 0
DWIDTH 5 0
BBX 5 6 1 0
BITMAP
60
60
58
78
d0
d0
ENDCHAR
STARTCHAR i
ENCODING 105
SWIDTH 343 0
DWIDTH 3 0
BBX 3 6 0 0
BITMAP
60
00
60
40
c0
c0
ENDCHAR
STARTCHAR j
ENCODING 106
SWIDTH 407 0
DWIDTH 3 0
BBX 5 8 0 -2
BITMAP
18
00
10
10
10
30
20
e0
ENDCHAR
STARTCHAR k
ENCODING 107
SWIDTH 666 0
DWIDTH 5 0
BBX 5 6 1 0
BITMAP
60
40
48
d0
f0
d0
ENDCHAR
STARTCHAR l
ENCODING 108
SWIDTH 343 0
DWIDTH 3 0
BBX 3 6 0 0
BITMAP
60
60
40
40
c0
c0
ENDCHAR
STARTCHAR m
ENCODING 109
SWIDTH 991 0
DWIDTH 8 0
BBX 7 4 1 0
BITMAP
76
7a
dc
b4
ENDCHAR
STARTCHAR n
ENCODING 110
SWIDTH 675 0
DWIDTH 5 0
BBX 5 4 1 0
BITMAP
58
78
d0
d0
ENDCHAR
STARTCHAR o
ENCODING 111
SWIDTH 663 0
DWIDTH 5 0
BBX 4 4 1 0
BITMAP
70
90
90
e0
ENDCHAR
STARTCHAR p
ENCODING 112
SWIDTH 681 0
DWIDTH 5 0
BBX 5 6 0 -2
BITMAP
78
68
58
f0
c0
c0
ENDCHAR
STARTCHAR q
ENCODING 113
SWIDTH 681 0
DWIDTH 5 0
BBX 5 6 1 -2
BITMAP
78
d8
b8
d0
10
30
ENDCHAR
STARTCHAR r
ENCODING 114
SWIDTH 542 0
DWIDTH 4 0
BBX 4 4 1 0
BITMAP
70
c0
c0
80
ENDCHAR
STARTCHAR s
ENCODING 115
SWIDTH 527 0
DWIDTH 4 0
BBX 4 4 0 0
BITMAP
70
40
30
e0
ENDCHAR
STARTCHAR t
ENCODING 116
SWIDTH 437 0
DWIDTH 3 0
BBX 3 6 1 0
BITMAP
40
40
e0
c0
80
e0
ENDCHAR
STARTCHAR u
ENCODING 117
SWIDTH 675 0
DWIDTH 5 0
BBX 5 4 1 0
BITMAP
58
58
f0
d0
ENDCHAR
STARTCHAR v
ENCODING 118
SWIDTH 630 0
DWIDTH 5 0
BBX 5 4 1 0
BITMAP
d8
d0
60
60
ENDCHAR
STARTCHAR w
ENCODING 119
SWIDTH 878 0
DWIDTH 7 0
BBX 7 4 1 0
BITMAP
ba
ac
ac
c8
ENDCHAR
STARTCHAR x
ENCODING 120
SWIDTH 563 0
DWIDTH 5 0
BBX 5 4 0 0
BITMAP
78
30
70
f0
ENDCHAR
STARTCHAR y
ENCODING 121
SWIDTH 633 0
DWIDTH 5 0
BBX 6 6 0 -2
BITMAP
44
68
68
70
20
c0
ENDCHAR
STARTCHAR z
ENCODING 122
SWIDTH 630 0
DWIDTH 5 0
BBX 5 4 0 0
BITMAP
78
10
40
f8
ENDCHAR
STARTCHAR braceleft
ENCODING 123
SWIDTH 386 0
DWIDTH 3 0
BBX 3 8 1 -2
BITMAP
60
40
40
c0
c0
c0
c0
c0
ENDCHAR
STARTCHAR bar
ENCODING 124
SWIDTH 259 0
DWIDTH 2 0
BBX 2 8 1 -2
BITMAP
40
40
80
80
80
80
80
80
ENDCHAR
STARTCHAR braceright
ENCODING 125
SWIDTH 386 0
DWIDTH 3 0
BBX 3 8 0 -2
BITMAP
60
60
60
60
60
40
40
c0
ENDCHAR
STARTCHAR asciitilde
ENCODING 126
SWIDTH 687 0
DWIDTH 5 0
BBX 5 2 1 1
BITMAP
e8
b8
ENDCHAR
STARTCHAR nobreakspace
ENCODING 160
SWIDTH 343 0
DWIDTH 3 0
BBX 1 1 0 0
BITMAP
00
ENDCHAR
STARTCHAR Aogonek
ENCODING 161
SWIDTH 771 0
DWIDTH 6 0
BBX 6 7 0 -1
BITMAP
18
28
28
3c
4c
8c
30
ENDCHAR
STARTCHAR breve
ENCODING 162
SWIDTH 663 0
DWIDTH 5 0
BBX 3 1 2 5
BITMAP
e0
ENDCHAR
STARTCHAR Lstroke
ENCODING 163
SWIDTH 623 0
DWIDTH 5 0
BBX 5 6 0 0
BITMAP
20
60
70
e0
c0
f8
ENDCHAR
STARTCHAR currency
ENCODING 164
SWIDTH 687 0
DWIDTH 5 0
BBX 6 6 0 0
BITMAP
44
24
78
48
78
88
ENDCHAR
STARTCHAR Lcaron
ENCODING 165
SWIDTH 750 0
DWIDTH 6 0
BBX 5 7 1 0
BITMAP
18
58
50
40
c0
c0
f0
ENDCHAR
STARTCHAR Sacute
ENCODING 166
SWIDTH 639 0
DWIDTH 5 0
BBX 5 8 1 0
BITMAP
30
00
38
40
60
10
18
f0
ENDCHAR
STARTCHAR section
ENCODING 167
SWIDTH 687 0
DWIDTH 5 0
BBX 5 8 1 -2
BITMAP
38
60
70
58
70
70
10
f0
ENDCHAR
STARTCHAR diaeresis
ENCODING 168
SWIDTH 663 0
DWIDTH 5 0
BBX 3 1 2 5
BITMAP
a0
ENDCHAR
STARTCHAR Scaron
ENCODING 169
SWIDTH 639 0
DWIDTH 5 0
BBX 5 8 1 0
BITMAP
70
00
38
40
60
10
18
f0
ENDCHAR
STARTCHAR Scedilla
ENCODING 170
SWIDTH 639 0
DWIDTH 5 0
BBX 5 8 1 -2
BITMAP
38
40
60
10
18
f0
30
30
ENDCHAR
STARTCHAR Tcaron
ENCODING 171
SWIDTH 747 0
DWIDTH 6 0
BBX 6 8 1 0
BITMAP
70
00
fc
30
20
20
60
60
ENDCHAR
STARTCHAR Zacute
ENCODING 172
SWIDTH 687 0
DWIDTH 5 0
BBX 6 8 0 0
BITMAP
18
00
7c
08
10
20
40
f8
ENDCHAR
STARTCHAR hyphen
ENCODING 173
SWIDTH 289 0
DWIDTH 2 0
BBX 2 1 1 2
BITMAP
c0
ENDCHAR
STARTCHAR Zcaron
ENCODING 174
SWIDTH 687 0
DWIDTH 5 0
BBX 6 8 0 0
BITMAP
38
00
7c
08
10
20
40
f8
ENDCHAR
STARTCHAR Zabovedot
ENCODING 175
SWIDTH 687 0
DWIDTH 5 0
BBX 6 8 0 0
BITMAP
10
00
7c
08
10
20
40
f8
ENDCHAR
STARTCHAR degree
ENCODING 176
SWIDTH 241 0
DWIDTH 2 0
BBX 1 2 3 4
BITMAP
80
80
ENDCHAR
STARTCHAR aogonek
ENCODING 177
SWIDTH 681 0
DWIDTH 5 0
BBX 5 5 1 -1
BITMAP
78
d8
b0
d0
30
ENDCHAR
STARTCHAR ogonek
ENCODING 178
SWIDTH 663 0
DWIDTH 5 0
BBX 2 1 2 -2
BITMAP
c0
ENDCHAR
STARTCHAR lstroke
ENCODING 179
SWIDTH 343 0
DWIDTH 3 0
BBX 4 6 0 0
BITMAP
20
60
70
e0
40
c0
ENDCHAR
STARTCHAR acute
ENCODING 180
SWIDTH 663 0
DWIDTH 5 0
BBX 2 1 3 5
BITMAP
c0
ENDCHAR
STARTCHAR lcaron
ENCODING 181
SWIDTH 750 0
DWIDTH 6 0
BBX 6 7 0 0
BITMAP
0c
6c
68
40
40
c0
c0
ENDCHAR
STARTCHAR sacute
ENCODING 182
SWIDTH 527 0
DWIDTH 4 0
BBX 4 6 0 0
BITMAP
30
00
70
40
30
e0
ENDCHAR
STARTCHAR caron
ENCODING 183
SWIDTH 663 0
DWIDTH 5 0
BBX 3 1 2 5
BITMAP
e0
ENDCHAR
STARTCHAR cedilla
ENCODING 184
SWIDTH 663 0
DWIDTH 5 0
BBX 2 2 2 -2
BITMAP
c0
c0
ENDCHAR
STARTCHAR scaron
ENCODING 185
SWIDTH 527 0
DWIDTH 4 0
BBX 4 6 0 0
BITMAP
70
00
70
40
30
e0
ENDCHAR
STARTCHAR scedilla
ENCODING 186
SWIDTH 527 0
DWIDTH 4 0
BBX 4 6 0 -2
BITMAP
70
40
30
e0
60
60
ENDCHAR
STARTCHAR tcaron
ENCODING 187
SWIDTH 625 0
DWIDTH 5 0
BBX 5 8 1 0
BITMAP
18
18
50
40
e0
c0
80
e0
ENDCHAR
STARTCHAR zacute
ENCODING 188
SWIDTH 630 0
DWIDTH 5 0
BBX 5 6 0 0
BITMAP
30
00
78
10
40
f8
ENDCHAR
STARTCHAR doubleacute
ENCODING 189
SWIDTH 663 0
DWIDTH 5 0
BBX 3 1 3 5
BITMAP
e0
ENDCHAR
STARTCHAR zcaron
ENCODING 190
SWIDTH 630 0
DWIDTH 5 0
BBX 5 6 0 0
BITMAP
70
00
78
10
40
f8
ENDCHAR
STARTCHAR zabovedot
ENCODING 191
SWIDTH 630 0
DWIDTH 5 0
BBX 5 6 0 0
BITMAP
20
00
78
10
40
f8
ENDCHAR
STARTCHAR Racute
ENCODING 192
SWIDTH 708 0
DWIDTH 6 0
BBX 5 8 1 0
BITMAP
30
00
78
48
50
e0
d0
90
ENDCHAR
STARTCHAR Aacute
ENCODING 193
SWIDTH 771 0
DWIDTH 6 0
BBX 6 7 0 0
BITMAP
0c
18
28
28
3c
4c
8c
ENDCHAR
STARTCHAR Acircumflex
ENCODING 194
SWIDTH 771 0
DWIDTH 6 0
BBX 6 7 0 0
BITMAP
1c
18
28
28
3c
4c
8c
ENDCHAR
STARTCHAR Abreve
ENCODING 195
SWIDTH 771 0
DWIDTH 6 0
BBX 6 8 0 0
BITMAP
38
00
18
28
28
3c
4c
8c
ENDCHAR
STARTCHAR Adiaeresis
ENCODING 196
SWIDTH 771 0
DWIDTH 6 0
BBX 6 7 0 0
BITMAP
14
18
28
28
3c
4c
8c
ENDCHAR
STARTCHAR Lacute
ENCODING 197
SWIDTH 623 0
DWIDTH 5 0
BBX 4 8 1 0
BITMAP
60
00
40
40
40
c0
c0
f0
ENDCHAR
STARTCHAR Cacute
ENCODING 198
SWIDTH 737 0
DWIDTH 6 0
BBX 6 8 1 0
BITMAP
18
00
3c
40
80
80
c0
78
ENDCHAR
STARTCHAR Ccedilla
ENCODING 199
SWIDTH 737 0
DWIDTH 6 0
BBX 6 8 1 -2
BITMAP
3c
40
80
80
c0
78
40
60
ENDCHAR
STARTCHAR Ccaron
ENCODING 200
SWIDTH 737 0
DWIDTH 6 0
BBX 6 8 1 0
BITMAP
38
00
3c
40
80
80
c0
78
ENDCHAR
STARTCHAR Eacute
ENCODING 201
SWIDTH 642 0
DWIDTH 5 0
BBX 5 7 1 0
BITMAP
20
78
40
70
c0
c0
f0
ENDCHAR
STARTCHAR Eogonek
ENCODING 202
SWIDTH 642 0
DWIDTH 5 0
BBX 5 7 1 -1
BITMAP
78
40
70
c0
c0
f0
30
ENDCHAR
STARTCHAR Ediaeresis
ENCODING 203
SWIDTH 642 0
DWIDTH 5 0
BBX 5 7 1 0
BITMAP
28
78
40
70
c0
c0
f0
ENDCHAR
STARTCHAR Ecaron
ENCODING 204
SWIDTH 642 0
DWIDTH 5 0
BBX 5 8 1 0
BITMAP
70
00
78
40
70
c0
c0
f0
ENDCHAR
STARTCHAR Iacute
ENCODING 205
SWIDTH 361 0
DWIDTH 3 0
BBX 3 7 1 0
BITMAP
60
60
60
40
40
c0
c0
ENDCHAR
STARTCHAR Icircumflex
ENCODING 206
SWIDTH 361 0
DWIDTH 3 0
BBX 4 7 1 0
BITMAP
70
60
60
40
40
c0
c0
ENDCHAR
STARTCHAR Dcaron
ENCODING 207
SWIDTH 822 0
DWIDTH 7 0
BBX 6 8 1 0
BITMAP
38
00
7c
64
44
c4
c8
f0
ENDCHAR
STARTCHAR Dstroke
ENCODING 208
SWIDTH 822 0
DWIDTH 7 0
BBX 7 6 0 0
BITMAP
7e
62
fa
42
44
f8
ENDCHAR
STARTCHAR Nacute
ENCODING 209
SWIDTH 789 0
DWIDTH 6 0
BBX 6 8 1 0
BITMAP
18
00
44
64
6c
d8
98
88
ENDCHAR
STARTCHAR Ncaron
ENCODING 210
SWIDTH 789 0
DWIDTH 6 0
BBX 6 8 1 0
BITMAP
38
00
44
64
6c
d8
98
88
ENDCHAR
STARTCHAR Oacute
ENCODING 211
SWIDTH 855 0
DWIDTH 7 0
BBX 5 7 1 0
BITMAP
10
38
48
88
88
98
70
ENDCHAR
STARTCHAR Ocircumflex
ENCODING 212
SWIDTH 855 0
DWIDTH 7 0
BBX 5 7 1 0
BITMAP
18
38
48
88
88
98
70
ENDCHAR
STARTCHAR Odoubleacute
ENCODING 213
SWIDTH 855 0
DWIDTH 7 0
BBX 5 8 1 0
BITMAP
70
00
38
48
88
88
98
70
ENDCHAR
STARTCHAR Odiaeresis
ENCODING 214
SWIDTH 855 0
DWIDTH 7 0
BBX 5 7 1 0
BITMAP
28
38
48
88
88
98
70
ENDCHAR
STARTCHAR multiply
ENCODING 215
SWIDTH 687 0
DWIDTH 5 0
BBX 5 5 1 0
BITMAP
48
30
20
60
90
ENDCHAR
STARTCHAR Rcaron
ENCODING 216
SWIDTH 708 0
DWIDTH 6 0
BBX 5 8 1 0
BITMAP
70
00
78
48
50
e0
d0
90
ENDCHAR
STARTCHAR Uring
ENCODING 217
SWIDTH 759 0
DWIDTH 6 0
BBX 6 10 1 0
BITMAP
10
28
10
00
4c
4c
c8
88
98
70
ENDCHAR
STARTCHAR Uacute
ENCODING 218
SWIDTH 759 0
DWIDTH 6 0
BBX 6 7 1 0
BITMAP
18
4c
4c
c8
88
98
70
ENDCHAR
STARTCHAR Udoubleacute
ENCODING 219
SWIDTH 759 0
DWIDTH 6 0
BBX 6 8 1 0
BITMAP
38
00
4c
4c
c8
88
98
70
ENDCHAR
STARTCHAR Udiaeresis
ENCODING 220
SWIDTH 759 0
DWIDTH 6 0
BBX 6 7 1 0
BITMAP
28
4c
4c
c8
88
98
70
ENDCHAR
STARTCHAR Yacute
ENCODING 221
SWIDTH 681 0
DWIDTH 5 0
BBX 5 7 1 0
BITMAP
30
98
50
60
60
40
40
ENDCHAR
STARTCHAR Tcedilla
ENCODING 222
SWIDTH 747 0
DWIDTH 6 0
BBX 6 8 1 -2
BITMAP
fc
30
20
20
60
60
30
30
ENDCHAR
STARTCHAR ssharp
ENCODING 223
SWIDTH 708 0
DWIDTH 6 0
BBX 5 8 0 -2
BITMAP
38
78
50
58
48
f8
c0
c0
ENDCHAR
STARTCHAR racute
ENCODING 224
SWIDTH 542 0
DWIDTH 4 0
BBX 4 6 1 0
BITMAP
60
00
70
c0
c0
80
ENDCHAR
STARTCHAR aacute
ENCODING 225
SWIDTH 681 0
DWIDTH 5 0
BBX 5 5 1 0
BITMAP
10
78
d8
b0
d0
ENDCHAR
STARTCHAR acircumflex
ENCODING 226
SWIDTH 681 0
DWIDTH 5 0
BBX 5 5 1 0
BITMAP
18
78
d8
b0
d0
ENDCHAR
STARTCHAR abreve
ENCODING 227
SWIDTH 681 0
DWIDTH 5 0
BBX 5 6 1 0
BITMAP
70
00
78
d8
b0
d0
ENDCHAR
STARTCHAR adiaeresis
ENCODING 228
SWIDTH 681 0
DWIDTH 5 0
BBX 5 5 1 0
BITMAP
28
78
d8
b0
d0
ENDCHAR
STARTCHAR lacute
ENCODING 229
SWIDTH 343 0
DWIDTH 3 0
BBX 3 8 0 0
BITMAP
60
00
60
60
40
40
c0
c0
ENDCHAR
STARTCHAR cacute
ENCODING 230
SWIDTH 548 0
DWIDTH 4 0
BBX 4 6 1 0
BITMAP
60
00
70
80
80
e0
ENDCHAR
STARTCHAR ccedilla
ENCODING 231
SWIDTH 548 0
DWIDTH 4 0
BBX 4 6 1 -2
BITMAP
70
80
80
e0
80
c0
ENDCHAR
STARTCHAR ccaron
ENCODING 232
SWIDTH 548 0
DWIDTH 4 0
BBX 4 6 1 0
BITMAP
e0
00
70
80
80
e0
ENDCHAR
STARTCHAR eacute
ENCODING 233
SWIDTH 612 0
DWIDTH 5 0
BBX 4 5 1 0
BITMAP
20
70
e0
d0
f0
ENDCHAR
STARTCHAR eogonek
ENCODING 234
SWIDTH 612 0
DWIDTH 5 0
BBX 4 5 1 -1
BITMAP
70
e0
d0
f0
60
ENDCHAR
STARTCHAR ediaeresis
ENCODING 235
SWIDTH 612 0
DWIDTH 5 0
BBX 4 5 1 0
BITMAP
50
70
e0
d0
f0
ENDCHAR
STARTCHAR ecaron
ENCODING 236
SWIDTH 612 0
DWIDTH 5 0
BBX 4 6 1 0
BITMAP
e0
00
70
e0
d0
f0
ENDCHAR
STARTCHAR iacute
ENCODING 237
SWIDTH 343 0
DWIDTH 3 0
BBX 3 5 1 0
BITMAP
60
40
c0
c0
80
ENDCHAR
STARTCHAR icircumflex
ENCODING 238
SWIDTH 343 0
DWIDTH 3 0
BBX 3 5 1 0
BITMAP
e0
40
c0
c0
80
ENDCHAR
STARTCHAR dcaron
ENCODING 239
SWIDTH 1000 0
DWIDTH 8 0
BBX 8 7 1 0
BITMAP
03
1b
1a
78
d0
b0
f0
ENDCHAR
STARTCHAR dstroke
ENCODING 240
SWIDTH 750 0
DWIDTH 6 0
BBX 6 6 1 0
BITMAP
3c
18
78
d0
b0
f0
ENDCHAR
STARTCHAR nacute
ENCODING 241
SWIDTH 675 0
DWIDTH 5 0
BBX 5 6 1 0
BITMAP
30
00
58
78
d0
d0
ENDCHAR
STARTCHAR ncaron
ENCODING 242
SWIDTH 675 0
DWIDTH 5 0
BBX 5 6 1 0
BITMAP
70
00
58
78
d0
d0
ENDCHAR
STARTCHAR oacute
ENCODING 243
SWIDTH 663 0
DWIDTH 5 0
BBX 4 5 1 0
BITMAP
20
70
90
90
e0
ENDCHAR
STARTCHAR ocircumflex
ENCODING 244
SWIDTH 663 0
DWIDTH 5 0
BBX 4 5 1 0
BITMAP
30
70
90
90
e0
ENDCHAR
STARTCHAR odoubleacute
ENCODING 245
SWIDTH 663 0
DWIDTH 5 0
BBX 4 6 1 0
BITMAP
e0
00
70
90
90
e0
ENDCHAR
STARTCHAR odiaeresis
ENCODING 246
SWIDTH 663 0
DWIDTH 5 0
BBX 4 5 1 0
BITMAP
50
70
90
90
e0
ENDCHAR
STARTCHAR division
ENCODING 247
SWIDTH 687 0
DWIDTH 5 0
BBX 5 5 1 0
BITMAP
30
00
f8
00
60
ENDCHAR
STARTCHAR rcaron
ENCODING 248
SWIDTH 542 0
DWIDTH 4 0
BBX 4 6 1 0
BITMAP
e0
00
70
c0
c0
80
ENDCHAR
STARTCHAR uring
ENCODING 249
SWIDTH 675 0
DWIDTH 5 0
BBX 5 8 1 0
BITMAP
20
50
20
00
58
58
f0
d0
ENDCHAR
STARTCHAR uacute
ENCODING 250
SWIDTH 675 0
DWIDTH 5 0
BBX 5 5 1 0
BITMAP
30
58
58
f0
d0
ENDCHAR
STARTCHAR udoubleacute
ENCODING 251
SWIDTH 675 0
DWIDTH 5 0
BBX 5 6 1 0
BITMAP
70
00
58
58
f0
d0
ENDCHAR
STARTCHAR udiaeresis
ENCODING 252
SWIDTH 675 0
DWIDTH 5 0
BBX 5 5 1 0
BITMAP
28
58
58
f0
d0
ENDCHAR
STARTCHAR yacute
ENCODING 253
SWIDTH 633 0
DWIDTH 5 0
BBX 6 7 0 -2
BITMAP
18
44
68
68
70
20
c0
ENDCHAR
STARTCHAR tcedilla
ENCODING 254
SWIDTH 437 0
DWIDTH 3 0
BBX 3 8 1 -2
BITMAP
40
40
e0
c0
80
e0
60
60
ENDCHAR
STARTCHAR abovedot
ENCODING 255
SWIDTH 663 0
DWIDTH 5 0
BBX 1 1 3 5
BITMAP
80
ENDCHAR
ENDFONT
